<svg width="24" height="24" viewBox="0 0 24 24" fill="none" xmlns="http://www.w3.org/2000/svg">
<path fill-rule="evenodd" clip-rule="evenodd" d="M14.6335 4.80005C14.7591 5.65336 14.4118 6.48933 13.9536 7.08078C13.4634 7.71519 12.6185 8.20586 11.7998 8.18026C11.6504 7.36329 12.033 6.52154 12.4986 5.9557C13.0093 5.3312 13.8846 4.85209 14.6335 4.80005ZM17.0927 16.8109C17.5147 16.1641 17.6724 15.8378 18 15.1075C15.6171 14.2014 15.2353 10.8137 17.5936 9.5135C16.8743 8.61146 15.8635 8.08856 14.9094 8.08856C14.2219 8.08856 13.7508 8.26797 13.3226 8.43107C12.9657 8.56699 12.6386 8.69158 12.2408 8.69158C11.8108 8.69158 11.4301 8.55507 11.0314 8.41213C10.5933 8.25505 10.1336 8.09022 9.56312 8.09022C8.49239 8.09022 7.3527 8.74445 6.63012 9.86293C5.61441 11.4382 5.78766 14.3996 7.43481 16.9224C8.02354 17.8252 8.81016 18.8396 9.83901 18.8487C10.2659 18.853 10.55 18.7255 10.8574 18.5877C11.2093 18.4299 11.5917 18.2583 12.2539 18.2548C12.92 18.2508 13.2964 18.4244 13.6436 18.5846C13.9431 18.7227 14.2209 18.8508 14.6441 18.8462C15.6738 18.838 16.5039 17.7137 17.0927 16.8109Z" fill="white"/>
</svg>
