<svg width="24" height="24" viewBox="0 0 24 24" fill="none" xmlns="http://www.w3.org/2000/svg">
<path fill-rule="evenodd" clip-rule="evenodd" d="M5.4947 7.19154C5.02607 6.72291 5.02607 5.96311 5.4947 5.49448C5.96332 5.02585 6.72312 5.02585 7.19175 5.49448L12.0001 10.3028L16.8084 5.49448C17.277 5.02585 18.0368 5.02585 18.5055 5.49448C18.9741 5.96311 18.9741 6.72291 18.5055 7.19154L13.6971 11.9999L18.5055 16.8082C18.9741 17.2768 18.9741 18.0366 18.5055 18.5052C18.0368 18.9739 17.277 18.9739 16.8084 18.5052L12.0001 13.6969L7.19175 18.5052C6.72312 18.9739 5.96332 18.9739 5.49469 18.5052C5.02607 18.0366 5.02607 17.2768 5.4947 16.8082L10.303 11.9999L5.4947 7.19154Z" fill="white" fill-opacity="0.65"/>
</svg>
