<svg width="25" height="24" viewBox="0 0 25 24" fill="none" xmlns="http://www.w3.org/2000/svg">
<path fill-rule="evenodd" clip-rule="evenodd" d="M16.1366 12.5764C16.7311 12.1738 16.8867 11.3656 16.4842 10.7711C16.0816 10.1765 15.2734 10.0209 14.6789 10.4235L13.7077 11.081V6.53116C13.7077 5.81319 13.1257 5.23116 12.4077 5.23116C11.6897 5.23116 11.1077 5.81319 11.1077 6.53117V11.081L10.1366 10.4235C9.54206 10.0209 8.73379 10.1765 8.33125 10.7711C7.92872 11.3656 8.08435 12.1738 8.67886 12.5764L11.6789 14.6076C12.1191 14.9057 12.6964 14.9057 13.1366 14.6076L16.1366 12.5764ZM17.4079 18.7688C18.1259 18.7688 18.7079 18.1868 18.7079 17.4688C18.7079 16.7508 18.1259 16.1688 17.4079 16.1688L7.40791 16.1688C6.68994 16.1688 6.10791 16.7508 6.10791 17.4688C6.10791 18.1868 6.68994 18.7688 7.40791 18.7688L17.4079 18.7688Z" fill="white"/>
</svg>
