<svg width="24" height="24" viewBox="0 0 24 24" fill="none" xmlns="http://www.w3.org/2000/svg">
<g clip-path="url(#clip0_2447_41237)">
<path fill-rule="evenodd" clip-rule="evenodd" d="M17 15.75C16.6685 15.75 16.3505 15.8817 16.1161 16.1161C15.8817 16.3505 15.75 16.6685 15.75 17V19C15.75 19.4142 15.4142 19.75 15 19.75C14.5858 19.75 14.25 19.4142 14.25 19V17C14.25 16.2707 14.5397 15.5712 15.0555 15.0555C15.5712 14.5397 16.2707 14.25 17 14.25H19C19.4142 14.25 19.75 14.5858 19.75 15C19.75 15.4142 19.4142 15.75 19 15.75H17Z" fill="white"/>
<path fill-rule="evenodd" clip-rule="evenodd" d="M15 4.25C15.4142 4.25 15.75 4.58579 15.75 5V7C15.75 7.33152 15.8817 7.64946 16.1161 7.88388C16.3505 8.1183 16.6685 8.25 17 8.25H19C19.4142 8.25 19.75 8.58579 19.75 9C19.75 9.41421 19.4142 9.75 19 9.75H17C16.2707 9.75 15.5712 9.46027 15.0555 8.94454C14.5397 8.42882 14.25 7.72935 14.25 7V5C14.25 4.58579 14.5858 4.25 15 4.25Z" fill="white"/>
<path fill-rule="evenodd" clip-rule="evenodd" d="M4.25 15C4.25 14.5858 4.58579 14.25 5 14.25H7C7.72935 14.25 8.42882 14.5397 8.94454 15.0555C9.46027 15.5712 9.75 16.2707 9.75 17V19C9.75 19.4142 9.41421 19.75 9 19.75C8.58579 19.75 8.25 19.4142 8.25 19V17C8.25 16.6685 8.1183 16.3505 7.88388 16.1161C7.64946 15.8817 7.33152 15.75 7 15.75H5C4.58579 15.75 4.25 15.4142 4.25 15Z" fill="white"/>
<path fill-rule="evenodd" clip-rule="evenodd" d="M9 4.25C9.41421 4.25 9.75 4.58579 9.75 5V7C9.75 7.72935 9.46027 8.42882 8.94454 8.94454C8.42882 9.46027 7.72935 9.75 7 9.75H5C4.58579 9.75 4.25 9.41421 4.25 9C4.25 8.58579 4.58579 8.25 5 8.25H7C7.33152 8.25 7.64946 8.1183 7.88388 7.88388C8.1183 7.64946 8.25 7.33152 8.25 7V5C8.25 4.58579 8.58579 4.25 9 4.25Z" fill="white"/>
</g>
<defs>
<clipPath id="clip0_2447_41237">
<rect width="24" height="24" fill="white"/>
</clipPath>
</defs>
</svg>
