<svg width="25" height="24" viewBox="0 0 25 24" fill="none" xmlns="http://www.w3.org/2000/svg">
<path d="M17.3233 14.4226C19.0415 13.47 20.3538 12.7424 20.4731 12.6762C20.8292 12.4788 21.2023 11.975 20.4731 11.5723C20.2388 11.4426 18.9618 10.7374 17.3213 9.83081L15.0649 12.1338L17.3233 14.4226Z" fill="#FFE300"/>
<path d="M15.0649 12.1338L7.84814 19.4994C8.01112 19.5204 8.20714 19.4766 8.43261 19.3516C8.89939 19.0929 13.9123 16.3135 17.3234 14.4223L15.0649 12.1338Z" fill="#FF4E54"/>
<path d="M15.0648 12.1338L17.3212 9.83084C17.3212 9.83084 8.9346 5.19628 8.43253 4.91883C8.23954 4.81216 8.02914 4.77493 7.8429 4.81694L15.0648 12.1338Z" fill="#00F085"/>
<path d="M15.0649 12.1338L7.84281 4.81702C7.54451 4.88441 7.30005 5.14592 7.30005 5.67155V18.6215C7.30005 19.1165 7.49236 19.4647 7.84798 19.4994L15.0649 12.1338Z" fill="#00E0FF"/>
</svg>
