<svg width="24" height="24" viewBox="0 0 24 24" fill="none" xmlns="http://www.w3.org/2000/svg">
<g clip-path="url(#clip0_2447_41187)">
<path fill-rule="evenodd" clip-rule="evenodd" d="M3.62645 4.34964C3.85932 4.21589 4.14594 4.21685 4.3779 4.35217L16.3779 11.3522C16.6083 11.4866 16.75 11.7332 16.75 12C16.75 12.2668 16.6083 12.5134 16.3779 12.6478L4.3779 19.6478C4.14594 19.7831 3.85932 19.7841 3.62645 19.6504C3.39358 19.5166 3.25 19.2685 3.25 19V5C3.25 4.73145 3.39358 4.4834 3.62645 4.34964ZM4.75 6.30578V17.6942L14.5115 12L4.75 6.30578Z" fill="white"/>
<path fill-rule="evenodd" clip-rule="evenodd" d="M20 4.25C20.4142 4.25 20.75 4.58579 20.75 5V19C20.75 19.4142 20.4142 19.75 20 19.75C19.5858 19.75 19.25 19.4142 19.25 19V5C19.25 4.58579 19.5858 4.25 20 4.25Z" fill="white"/>
</g>
<defs>
<clipPath id="clip0_2447_41187">
<rect width="24" height="24" fill="white"/>
</clipPath>
</defs>
</svg>
