<svg width="24" height="24" viewBox="0 0 24 24" fill="none" xmlns="http://www.w3.org/2000/svg">
<path fill-rule="evenodd" clip-rule="evenodd" d="M17 10.6999C17.718 10.6999 18.3 11.282 18.3 11.9999C18.3 12.7179 17.718 13.2999 17 13.2999L13.3001 13.2999L13.3001 17C13.3001 17.718 12.718 18.3 12.0001 18.3C11.2821 18.3 10.7001 17.718 10.7001 17L10.7001 13.2999L7.00005 13.2999C6.28208 13.2999 5.70005 12.7179 5.70005 11.9999C5.70005 11.282 6.28208 10.6999 7.00005 10.6999L10.7001 10.6999L10.7001 7.00005C10.7001 6.28208 11.2821 5.70005 12.0001 5.70005C12.718 5.70005 13.3001 6.28208 13.3001 7.00005L13.3001 10.6999L17 10.6999Z" fill="white"/>
</svg>
