<svg xmlns="http://www.w3.org/2000/svg" fill="#fff" viewBox="0 0 24 24" width="1em" height="1em" aria-hidden="true" focusable="false" class=""><path fill="#fff" fill-opacity="0.9" d="m18.511 8.85-2.704-2.427c-1.95-1.749-2.713-2.69-3.768-2.357-1.316.415-.883 3.031-.883 3.915C7.064 7.98 3 12.545 3 19.38c0 .618.83.879 1.161.284 1.742-3.133 4.064-3.661 6.995-3.661 0 .994-.433 3.5.883 3.914 1.195.377 1.819-.608 3.768-2.357l2.704-2.427C20.171 13.646 21 12.901 21 11.992c0-.909-.83-1.653-2.489-3.142"></path></svg>