<svg width="24" height="24" viewBox="0 0 24 24" fill="none" xmlns="http://www.w3.org/2000/svg">
<g clip-path="url(#clip0_2447_41202)">
<path fill-rule="evenodd" clip-rule="evenodd" d="M14.4 7.54998C14.6486 7.21861 15.1187 7.15145 15.45 7.39998C16.1642 7.93558 16.7438 8.63009 17.143 9.42851C17.5422 10.2269 17.75 11.1073 17.75 12C17.75 12.8926 17.5422 13.773 17.143 14.5715C16.7438 15.3699 16.1642 16.0644 15.45 16.6C15.1187 16.8485 14.6486 16.7814 14.4 16.45C14.1515 16.1186 14.2187 15.6485 14.55 15.4C15.0779 15.0041 15.5063 14.4908 15.8014 13.9006C16.0964 13.3105 16.25 12.6598 16.25 12C16.25 11.3402 16.0964 10.6895 15.8014 10.0993C15.5063 9.50919 15.0779 8.99586 14.55 8.59998C14.2187 8.35145 14.1515 7.88135 14.4 7.54998Z" fill="white"/>
<path fill-rule="evenodd" clip-rule="evenodd" d="M17.1159 4.52862C17.3763 4.20645 17.8485 4.15634 18.1706 4.41669C19.3016 5.33065 20.2138 6.48599 20.8405 7.79812C21.4671 9.11025 21.7924 10.5459 21.7924 12C21.7924 13.4541 21.4671 14.8898 20.8405 16.2019C20.2138 17.5141 19.3016 18.6694 18.1706 19.5834C17.8485 19.8437 17.3763 19.7936 17.1159 19.4714C16.8556 19.1493 16.9057 18.677 17.2278 18.4167C18.1848 17.6433 18.9567 16.6657 19.4869 15.5555C20.0172 14.4452 20.2924 13.2304 20.2924 12C20.2924 10.7696 20.0172 9.55483 19.4869 8.44457C18.9567 7.33431 18.1848 6.3567 17.2278 5.58336C16.9057 5.32301 16.8556 4.85079 17.1159 4.52862Z" fill="white"/>
<path fill-rule="evenodd" clip-rule="evenodd" d="M10.2271 4.81873C10.2158 4.81495 10.2035 4.81535 10.1924 4.81986C10.1814 4.82436 10.1723 4.83266 10.1668 4.84328C10.1456 4.88456 10.1205 4.92378 10.092 4.96043L6.59201 9.46043C6.44992 9.64312 6.23144 9.74997 6 9.74997H4C3.9337 9.74997 3.87011 9.77631 3.82322 9.8232C3.77634 9.87008 3.75 9.93367 3.75 9.99997V14C3.75 14.0663 3.77634 14.1299 3.82322 14.1767C3.87011 14.2236 3.9337 14.25 4 14.25H6C6.23144 14.25 6.44992 14.3568 6.59201 14.5395L10.092 19.0395C10.1205 19.0762 10.1456 19.1154 10.1668 19.1567C10.1723 19.1673 10.1814 19.1756 10.1924 19.1801C10.2035 19.1846 10.2158 19.185 10.2271 19.1812C10.2384 19.1774 10.248 19.1697 10.2541 19.1595C10.2603 19.1493 10.2626 19.1372 10.2606 19.1254C10.2535 19.084 10.25 19.042 10.25 19V4.99997C10.25 4.95793 10.2535 4.91597 10.2606 4.87453C10.2626 4.86276 10.2603 4.85067 10.2541 4.84043C10.248 4.8302 10.2384 4.8225 10.2271 4.81873ZM9.62657 3.43067C9.9692 3.29111 10.3504 3.27871 10.7014 3.3957C11.0524 3.5127 11.35 3.75137 11.5403 4.06859C11.7181 4.36478 11.7914 4.71121 11.75 5.05275V18.9472C11.7914 19.2887 11.7181 19.6352 11.5403 19.9314C11.35 20.2486 11.0524 20.4872 10.7014 20.6042C10.3504 20.7212 9.9692 20.7088 9.62657 20.5693C9.30905 20.4399 9.0441 20.2093 8.87219 19.9144L5.63319 15.75H4C3.53587 15.75 3.09075 15.5656 2.76256 15.2374C2.43437 14.9092 2.25 14.4641 2.25 14V9.99997C2.25 9.53584 2.43437 9.09072 2.76256 8.76254C3.09075 8.43435 3.53587 8.24997 4 8.24997H5.63319L8.87219 4.08554C9.0441 3.79064 9.30905 3.56001 9.62657 3.43067Z" fill="white"/>
</g>
<defs>
<clipPath id="clip0_2447_41202">
<rect width="24" height="24" fill="white"/>
</clipPath>
</defs>
</svg>
