<svg width="165" height="32" viewBox="0 0 165 32" fill="none" xmlns="http://www.w3.org/2000/svg">
<path d="M157.358 24.6066C156.285 24.6066 155.384 24.3505 154.657 23.8384C153.93 23.3262 153.381 22.6489 153.009 21.8064C152.646 20.9556 152.464 20.0346 152.464 19.0433V18.8451C152.481 17.8043 152.696 16.8255 153.109 15.9086C153.53 14.9917 154.137 14.2524 154.93 13.6907C155.723 13.1208 156.681 12.8358 157.804 12.8358C158.498 12.8358 159.143 12.968 159.737 13.2323C160.34 13.4884 160.902 13.8394 161.422 14.2855C161.48 14.3433 161.53 14.3722 161.571 14.3722C161.67 14.3722 161.716 14.269 161.707 14.0624C161.707 13.8559 161.736 13.6494 161.794 13.4429C161.86 13.2364 162.025 13.1332 162.29 13.1332H164.037C164.375 13.1332 164.545 13.3025 164.545 13.6412C164.545 13.9964 164.541 14.3516 164.532 14.7067C164.532 15.0619 164.532 15.4171 164.532 15.7723C164.532 16.6809 164.536 17.5937 164.545 18.5105C164.561 19.4274 164.574 20.3402 164.582 21.2488C164.59 21.6783 164.598 22.112 164.607 22.5498C164.623 22.9793 164.631 23.413 164.631 23.8508C164.631 24.1977 164.462 24.3711 164.123 24.3711H162.178C161.955 24.3711 161.811 24.3009 161.745 24.1605C161.678 24.0118 161.65 23.8384 161.658 23.6401C161.666 23.4419 161.666 23.2643 161.658 23.1073C161.658 23.0826 161.654 23.0413 161.645 22.9834C161.637 22.9256 161.612 22.8967 161.571 22.8967C161.538 22.8967 161.505 22.9091 161.472 22.9339C161.447 22.9587 161.422 22.9793 161.398 22.9958C160.819 23.4832 160.196 23.8755 159.527 24.1729C158.858 24.462 158.135 24.6066 157.358 24.6066ZM158.622 21.9674C159.209 21.9674 159.75 21.8477 160.245 21.6081C160.749 21.3603 161.142 20.9721 161.422 20.4434C161.439 20.4104 161.476 20.3278 161.534 20.1956C161.6 20.0552 161.633 19.9685 161.633 19.9354C161.633 19.6463 161.629 19.3572 161.621 19.0681C161.621 18.779 161.621 18.494 161.621 18.2132C161.621 18.081 161.625 17.9365 161.633 17.7795C161.641 17.6143 161.637 17.4698 161.621 17.3459C161.612 17.288 161.579 17.2013 161.522 17.0857C161.472 16.97 161.435 16.8874 161.41 16.8379C161.121 16.3175 160.712 15.9292 160.183 15.6732C159.655 15.4171 159.101 15.2891 158.523 15.2891C157.912 15.2891 157.375 15.4419 156.912 15.7475C156.45 16.0531 156.086 16.4579 155.822 16.9618C155.566 17.4574 155.438 18.0025 155.438 18.5973C155.438 19.192 155.574 19.7454 155.847 20.2576C156.119 20.7697 156.495 21.1827 156.974 21.4966C157.462 21.8105 158.011 21.9674 158.622 21.9674Z" fill="white"/>
<path d="M132.293 13.1332H133.978C134.259 13.1332 134.424 13.2819 134.474 13.5792C134.49 13.6453 134.507 13.7775 134.523 13.9757C134.54 14.174 134.56 14.3598 134.585 14.5333C134.618 14.7067 134.66 14.7935 134.709 14.7935C134.75 14.7935 134.788 14.777 134.821 14.7439C134.854 14.7026 134.878 14.6696 134.895 14.6448C135.44 13.9922 136.064 13.5297 136.766 13.2571C137.476 12.9762 138.249 12.8358 139.083 12.8358C139.76 12.8358 140.417 12.9597 141.053 13.2075C141.697 13.4553 142.172 13.9096 142.478 14.5704C142.494 14.5952 142.511 14.6283 142.527 14.6696C142.544 14.7109 142.573 14.7315 142.614 14.7315C142.647 14.7315 142.676 14.7191 142.701 14.6944C142.726 14.6613 142.746 14.6365 142.763 14.62C143.275 14.0583 143.87 13.6247 144.547 13.319C145.224 13.0051 145.943 12.8482 146.703 12.8482C147.711 12.8482 148.578 13.129 149.305 13.6907C150.04 14.2442 150.408 15.0619 150.408 16.144C150.408 17.0113 150.416 17.8828 150.432 18.7584C150.449 19.6257 150.465 20.493 150.482 21.3603C150.498 21.7733 150.515 22.1905 150.531 22.6117C150.556 23.0247 150.569 23.4377 150.569 23.8507C150.569 24.1977 150.399 24.3711 150.061 24.3711H148.128C147.946 24.3711 147.818 24.3298 147.744 24.2472C147.678 24.1646 147.636 24.0407 147.62 23.8755C147.587 23.5286 147.574 23.1775 147.583 22.8224C147.591 22.4589 147.587 22.1037 147.57 21.7568C147.562 21.0134 147.55 20.27 147.533 19.5266C147.525 18.7831 147.521 18.0397 147.521 17.2963C147.521 16.7181 147.38 16.2679 147.099 15.9458C146.827 15.6154 146.393 15.4502 145.798 15.4502C145.113 15.4502 144.53 15.6608 144.051 16.0821C143.572 16.5033 143.205 17.0278 142.949 17.6556C142.701 18.2751 142.577 18.8864 142.577 19.4894C142.577 20.2163 142.581 20.9432 142.589 21.6701C142.598 22.397 142.602 23.128 142.602 23.8631C142.602 24.2018 142.432 24.3711 142.094 24.3711H140.136C139.797 24.3711 139.628 24.2018 139.628 23.8631C139.628 22.7645 139.636 21.6701 139.653 20.5797C139.669 19.4894 139.669 18.3949 139.653 17.2963C139.645 16.7429 139.504 16.2968 139.232 15.9582C138.967 15.6195 138.542 15.4502 137.955 15.4502C137.253 15.4502 136.663 15.6608 136.184 16.0821C135.704 16.4951 135.341 17.0155 135.093 17.6432C134.845 18.271 134.713 18.8946 134.697 19.5142C134.688 20.018 134.68 20.5219 134.672 21.0258C134.664 21.5296 134.651 22.0376 134.635 22.5498C134.635 22.7645 134.635 22.9876 134.635 23.2188C134.643 23.4419 134.635 23.6608 134.61 23.8755C134.593 24.0407 134.548 24.1646 134.474 24.2472C134.408 24.3298 134.284 24.3711 134.102 24.3711H132.157C131.818 24.3711 131.649 24.1935 131.649 23.8384C131.649 23.4088 131.657 22.9834 131.673 22.5622C131.698 22.1326 131.715 21.7031 131.723 21.2736C131.773 19.4646 131.797 17.6598 131.797 15.859C131.797 15.5204 131.789 15.1487 131.773 14.7439C131.756 14.3392 131.76 13.9716 131.785 13.6412C131.81 13.3025 131.979 13.1332 132.293 13.1332Z" fill="white"/>
<path d="M121.997 24.6066C120.923 24.6066 120.022 24.3505 119.296 23.8384C118.569 23.3262 118.019 22.6489 117.648 21.8064C117.284 20.9556 117.102 20.0346 117.102 19.0433V18.8451C117.119 17.8043 117.334 16.8255 117.747 15.9086C118.168 14.9917 118.775 14.2524 119.568 13.6907C120.361 13.1208 121.319 12.8358 122.443 12.8358C123.137 12.8358 123.781 12.968 124.376 13.2323C124.979 13.4884 125.54 13.8394 126.061 14.2855C126.118 14.3433 126.168 14.3722 126.209 14.3722C126.308 14.3722 126.354 14.269 126.346 14.0624C126.346 13.8559 126.375 13.6494 126.432 13.4429C126.498 13.2364 126.664 13.1332 126.928 13.1332H128.675C129.014 13.1332 129.183 13.3025 129.183 13.6412C129.183 13.9964 129.179 14.3516 129.171 14.7067C129.171 15.0619 129.171 15.4171 129.171 15.7723C129.171 16.6809 129.175 17.5937 129.183 18.5105C129.199 19.4274 129.212 20.3402 129.22 21.2488C129.228 21.6783 129.237 22.112 129.245 22.5498C129.261 22.9793 129.27 23.413 129.27 23.8508C129.27 24.1977 129.1 24.3711 128.762 24.3711H126.816C126.593 24.3711 126.449 24.3009 126.383 24.1605C126.317 24.0118 126.288 23.8384 126.296 23.6401C126.304 23.4419 126.304 23.2643 126.296 23.1073C126.296 23.0826 126.292 23.0413 126.284 22.9834C126.275 22.9256 126.251 22.8967 126.209 22.8967C126.176 22.8967 126.143 22.9091 126.11 22.9339C126.085 22.9587 126.061 22.9793 126.036 22.9958C125.458 23.4832 124.834 23.8755 124.165 24.1729C123.496 24.462 122.773 24.6066 121.997 24.6066ZM123.26 21.9674C123.847 21.9674 124.388 21.8477 124.884 21.6081C125.387 21.3603 125.78 20.9721 126.061 20.4434C126.077 20.4104 126.114 20.3278 126.172 20.1956C126.238 20.0552 126.271 19.9685 126.271 19.9354C126.271 19.6463 126.267 19.3572 126.259 19.0681C126.259 18.779 126.259 18.494 126.259 18.2132C126.259 18.081 126.263 17.9365 126.271 17.7795C126.28 17.6143 126.275 17.4698 126.259 17.3459C126.251 17.288 126.218 17.2013 126.16 17.0857C126.11 16.97 126.073 16.8874 126.048 16.8379C125.759 16.3175 125.35 15.9292 124.822 15.6732C124.293 15.4171 123.74 15.2891 123.161 15.2891C122.55 15.2891 122.013 15.4419 121.551 15.7475C121.088 16.0531 120.725 16.4579 120.46 16.9618C120.204 17.4574 120.076 18.0025 120.076 18.5973C120.076 19.192 120.212 19.7454 120.485 20.2576C120.758 20.7697 121.133 21.1827 121.613 21.4966C122.1 21.8105 122.649 21.9674 123.26 21.9674Z" fill="white"/>
<path d="M111.316 13.1332C111.63 13.1332 111.799 13.286 111.824 13.5916L111.948 15.0041C111.948 15.0124 111.956 15.0743 111.973 15.19C111.989 15.2973 112.018 15.351 112.06 15.351C112.101 15.351 112.142 15.3056 112.184 15.2147C112.233 15.1239 112.262 15.0702 112.27 15.0537C112.609 14.4176 113.022 13.9179 113.509 13.5544C113.997 13.191 114.612 13.0093 115.355 13.0093C115.529 13.0093 115.748 13.0258 116.012 13.0588C116.285 13.0836 116.421 13.2199 116.421 13.4677C116.421 13.5916 116.396 13.7857 116.347 14.0501C116.297 14.3144 116.239 14.5828 116.173 14.8554C116.115 15.1197 116.07 15.3221 116.037 15.4625C116.004 15.603 115.95 15.7145 115.876 15.7971C115.81 15.8714 115.694 15.9086 115.529 15.9086C115.446 15.9086 115.364 15.9045 115.281 15.8962C115.207 15.8797 115.124 15.8714 115.033 15.8714C114.381 15.8714 113.831 16.0779 113.385 16.4909C112.939 16.8957 112.605 17.3954 112.382 17.9902C112.159 18.5849 112.047 19.1714 112.047 19.7496V23.8631C112.047 24.2018 111.878 24.3711 111.539 24.3711H109.619C109.28 24.3711 109.111 24.1977 109.111 23.8507C109.111 22.5704 109.115 21.2942 109.123 20.0222C109.14 18.7418 109.148 17.4656 109.148 16.1936V13.6412C109.148 13.3025 109.317 13.1332 109.656 13.1332H111.316Z" fill="white"/>
<path d="M92.7184 24.3711C92.3798 24.3711 92.2104 24.1977 92.2104 23.8507C92.2104 23.413 92.2187 22.9793 92.2352 22.5498C92.2518 22.112 92.2641 21.6783 92.2724 21.2488C92.2889 20.2906 92.3013 19.3366 92.3096 18.3866C92.3261 17.4285 92.3344 16.4744 92.3344 15.5245C92.3344 14.6076 92.3302 13.6907 92.322 12.7739C92.3137 11.857 92.3013 10.9401 92.2848 10.0232C92.2765 9.61021 92.2641 9.19308 92.2476 8.77181C92.2311 8.35054 92.2228 7.9334 92.2228 7.52039C92.2228 7.17346 92.3922 7 92.7308 7H97.3772C98.7649 7 100.07 7.19824 101.293 7.59473C102.523 7.99122 103.593 8.62312 104.502 9.49044C105.41 10.3495 106.079 11.4811 106.509 12.8854C106.814 13.8931 106.967 14.9174 106.967 15.9582C106.967 17.6515 106.583 19.1301 105.815 20.3939C105.055 21.6494 104.014 22.6282 102.693 23.3304C101.379 24.0242 99.8924 24.3711 98.2321 24.3711H92.7184ZM95.3947 21.3851H97.6869C99.529 21.3851 100.999 20.9019 102.098 19.9354C103.205 18.9607 103.758 17.5276 103.758 15.636C103.758 14.5622 103.531 13.5999 103.077 12.7491C102.622 11.89 101.986 11.2127 101.169 10.7171C100.351 10.2215 99.3927 9.97366 98.2941 9.97366H95.4071C95.4154 10.8492 95.4195 11.7289 95.4195 12.6128C95.4278 13.4966 95.4319 14.3805 95.4319 15.2643C95.4319 17.2963 95.4195 19.3366 95.3947 21.3851Z" fill="white"/>
<path d="M83.9593 24.6084C82.7574 24.6084 81.7078 24.3697 80.8105 23.8922C79.9215 23.4148 79.23 22.7356 78.7361 21.8548C78.2421 20.974 77.9952 19.9285 77.9952 18.7184C77.9952 17.5906 78.2298 16.578 78.699 15.6807C79.1682 14.7834 79.8309 14.0755 80.6871 13.5569C81.5432 13.03 82.5475 12.7666 83.7 12.7666C85.1242 12.7666 86.2396 13.1658 87.0464 13.9643C87.8613 14.7629 88.4129 15.8248 88.701 17.1502C88.7092 17.1749 88.7133 17.216 88.7133 17.2736C88.7133 17.3971 88.6804 17.4918 88.6146 17.5576C88.5569 17.6153 88.4787 17.6647 88.3799 17.7058C88.1001 17.8375 87.8037 17.9528 87.4909 18.0516C87.1781 18.1504 86.8735 18.2574 86.5771 18.3726C85.7128 18.6937 84.8443 19.0106 83.9717 19.3234C83.0991 19.628 82.2347 19.9532 81.3786 20.2989C81.3127 20.3319 81.2798 20.373 81.2798 20.4224C81.2798 20.4471 81.288 20.4759 81.3045 20.5088C81.6338 21.1016 82.0865 21.542 82.6628 21.8301C83.239 22.1182 83.8564 22.2623 84.515 22.2623C85.0336 22.2623 85.5152 22.18 85.9597 22.0153C86.4125 21.8507 86.857 21.6449 87.2933 21.3979C87.3509 21.365 87.4086 21.3362 87.4662 21.3115C87.5238 21.2868 87.5814 21.2744 87.6391 21.2744C87.7543 21.2744 87.8407 21.3115 87.8984 21.3856C87.9642 21.4514 88.0177 21.5296 88.0589 21.6202C88.0918 21.6778 88.1536 21.8095 88.2441 22.0153C88.3429 22.2129 88.4335 22.4146 88.5158 22.6204C88.6063 22.8179 88.6516 22.9455 88.6516 23.0032C88.6516 23.0937 88.6269 23.1678 88.5775 23.2254C88.5281 23.2831 88.4705 23.3366 88.4046 23.386C87.8202 23.7893 87.1081 24.0939 86.2684 24.2997C85.437 24.5055 84.6673 24.6084 83.9593 24.6084ZM80.8599 18.5949C81.6914 18.3068 82.5228 18.0186 83.3543 17.7305C84.1857 17.4424 85.013 17.1543 85.8362 16.8661C85.6304 16.4134 85.3423 16.0182 84.9719 15.6807C84.6097 15.3432 84.161 15.1745 83.6259 15.1745C83.0003 15.1745 82.4817 15.3432 82.0701 15.6807C81.6585 16.0182 81.3539 16.4504 81.1563 16.9773C80.9587 17.4959 80.8599 18.0351 80.8599 18.5949Z" fill="#FF3366"/>
<path d="M71.0308 24.5714C70.9979 24.5714 70.969 24.5549 70.9444 24.522C70.3434 23.4436 69.7466 22.3569 69.1539 21.2621C68.5694 20.1672 67.9849 19.0765 67.4004 17.9898C67.03 17.3066 66.6554 16.6233 66.2768 15.94C65.8981 15.2485 65.5276 14.5571 65.1654 13.8656C65.1325 13.7997 65.0996 13.7338 65.0666 13.668C65.042 13.5939 65.0296 13.5239 65.0296 13.4581C65.0296 13.3017 65.0996 13.207 65.2395 13.1741C65.3795 13.1329 65.5029 13.1123 65.61 13.1123H67.882C68.0796 13.1123 68.2319 13.207 68.3389 13.3963C68.4788 13.6433 68.6106 13.9067 68.734 14.1866C68.8575 14.4583 68.981 14.7258 69.1045 14.9892C69.4173 15.6396 69.726 16.2899 70.0306 16.9402C70.3434 17.5906 70.6645 18.2368 70.9937 18.8789C71.0102 18.9036 71.0267 18.9365 71.0431 18.9777C71.0678 19.0106 71.0966 19.0271 71.1296 19.0271C71.1707 19.0271 71.1995 19.0106 71.216 18.9777C71.2407 18.9365 71.2572 18.9036 71.2654 18.8789C71.5618 18.245 71.8458 17.6029 72.1174 16.9526C72.3891 16.294 72.6649 15.6437 72.9447 15.0016C73.06 14.7382 73.1711 14.4706 73.2781 14.199C73.3852 13.9273 73.5045 13.668 73.6362 13.421C73.7433 13.2152 73.8997 13.1123 74.1055 13.1123H76.1676C76.2829 13.1123 76.4063 13.1329 76.5381 13.1741C76.678 13.207 76.748 13.3017 76.748 13.4581C76.748 13.5239 76.7356 13.5898 76.7109 13.6556C76.6862 13.7215 76.6574 13.7874 76.6245 13.8532C76.2211 14.66 75.8054 15.4667 75.3773 16.2734C74.9575 17.072 74.5418 17.8746 74.1302 18.6813C73.628 19.6527 73.13 20.6282 72.636 21.6078C72.1421 22.5792 71.6358 23.5506 71.1172 24.522C71.0925 24.5549 71.0637 24.5714 71.0308 24.5714Z" fill="#FF3366"/>
<path d="M52.2617 18.7678C52.2617 17.6235 52.5046 16.6027 52.9903 15.7054C53.4842 14.8081 54.1716 14.1002 55.0524 13.5815C55.9332 13.0547 56.9499 12.7913 58.1024 12.7913C59.2384 12.7913 60.2304 13.0506 61.0783 13.5692C61.9262 14.0796 62.5847 14.7793 63.054 15.6684C63.5314 16.5574 63.7702 17.5576 63.7702 18.669C63.7702 19.8132 63.5356 20.8299 63.0663 21.719C62.5971 22.5998 61.9344 23.2913 61.0783 23.7934C60.2304 24.2956 59.2219 24.5467 58.053 24.5467C56.8923 24.5467 55.8756 24.3079 55.003 23.8305C54.1386 23.3448 53.4636 22.6698 52.9779 21.8054C52.5004 20.941 52.2617 19.9285 52.2617 18.7678ZM58.0406 15.2856C57.415 15.2856 56.8923 15.4543 56.4724 15.7919C56.0526 16.1211 55.7357 16.5451 55.5216 17.0637C55.3076 17.5823 55.2006 18.1257 55.2006 18.6937C55.2006 19.2288 55.3117 19.7433 55.534 20.2372C55.7645 20.7311 56.0896 21.1345 56.5095 21.4473C56.9293 21.7601 57.4273 21.9165 58.0036 21.9165C58.6292 21.9165 59.1479 21.7601 59.5595 21.4473C59.9793 21.1262 60.2921 20.7146 60.4979 20.2125C60.7119 19.7103 60.819 19.1752 60.819 18.6072C60.819 18.0557 60.7119 17.5288 60.4979 17.0267C60.2921 16.5163 59.9834 16.1006 59.5718 15.7795C59.1602 15.4502 58.6498 15.2856 58.0406 15.2856Z" fill="#FF3366"/>
<path d="M40.0123 7.51862C40.0123 7.17287 40.1811 7 40.5186 7H42.6301C42.9677 7 43.1364 7.16876 43.1364 7.50627C43.1364 8.97982 43.1405 10.4534 43.1488 11.9269C43.1652 13.4004 43.1735 14.874 43.1735 16.3475C43.1735 17.146 43.1694 17.9528 43.1611 18.7678C43.1611 19.5745 43.1611 20.3812 43.1611 21.188C43.1611 21.2868 43.2105 21.3362 43.3093 21.3362H50.0884C50.4177 21.3362 50.5865 21.5008 50.5947 21.8301L50.6317 23.7934C50.6482 24.1392 50.4794 24.3121 50.1255 24.3121H40.5063C40.1688 24.3121 40 24.1392 40 23.7934C40 23.3407 40.0041 22.892 40.0123 22.4475C40.0288 21.9947 40.0412 21.542 40.0494 21.0892C40.0741 19.1958 40.0864 17.3066 40.0864 15.4214C40.0864 14.0961 40.0741 12.7789 40.0494 11.47C40.0247 10.1529 40.0123 8.83575 40.0123 7.51862Z" fill="#FF3366"/>
<mask id="mask0_2445_2393" style="mask-type:alpha" maskUnits="userSpaceOnUse" x="0" y="0" width="32" height="32">
<rect width="32" height="32" fill="#D9D9D9"/>
</mask>
<g mask="url(#mask0_2445_2393)">
<path fill-rule="evenodd" clip-rule="evenodd" d="M3.75139 14.5654C2.41111 13.0211 1.59991 11.0053 1.59991 8.8C1.59991 3.93991 5.53979 2.2716e-05 10.3999 0C13.7938 0 17.5447 2.1419 20.8724 4.86535L3.75139 14.5654ZM20.8725 27.1346C17.5448 29.858 13.7939 31.9999 10.4 32H10.4C5.53987 32 1.59998 28.0601 1.59998 23.2C1.59998 20.9947 2.41118 18.9788 3.75148 17.4346L20.8725 27.1346ZM30.4 16C30.4 15.193 27.5507 11.1296 23.5971 7.30004L8.1374 16L23.5971 24.6999C27.5506 20.8704 30.4 16.807 30.4 16Z" fill="url(#paint0_linear_2445_2393)"/>
<path fill-rule="evenodd" clip-rule="evenodd" d="M3.75139 14.5654C2.41111 13.0211 1.59991 11.0053 1.59991 8.8C1.59991 3.93991 5.53979 2.2716e-05 10.3999 0C13.7938 0 17.5447 2.1419 20.8724 4.86535L3.75139 14.5654ZM20.8725 27.1346C17.5448 29.858 13.7939 31.9999 10.4 32H10.4C5.53987 32 1.59998 28.0601 1.59998 23.2C1.59998 20.9947 2.41118 18.9788 3.75148 17.4346L20.8725 27.1346ZM30.4 16C30.4 15.193 27.5507 11.1296 23.5971 7.30004L8.1374 16L23.5971 24.6999C27.5506 20.8704 30.4 16.807 30.4 16Z" fill="url(#paint1_linear_2445_2393)"/>
<path fill-rule="evenodd" clip-rule="evenodd" d="M3.75139 14.5654C2.41111 13.0211 1.59991 11.0053 1.59991 8.8C1.59991 3.93991 5.53979 2.2716e-05 10.3999 0C13.7938 0 17.5447 2.1419 20.8724 4.86535L3.75139 14.5654ZM20.8725 27.1346C17.5448 29.858 13.7939 31.9999 10.4 32H10.4C5.53987 32 1.59998 28.0601 1.59998 23.2C1.59998 20.9947 2.41118 18.9788 3.75148 17.4346L20.8725 27.1346ZM30.4 16C30.4 15.193 27.5507 11.1296 23.5971 7.30004L8.1374 16L23.5971 24.6999C27.5506 20.8704 30.4 16.807 30.4 16Z" fill="url(#paint2_linear_2445_2393)"/>
</g>
<defs>
<linearGradient id="paint0_linear_2445_2393" x1="3.26144" y1="16" x2="30.8473" y2="16" gradientUnits="userSpaceOnUse">
<stop stop-color="#FF0080"/>
<stop offset="1" stop-color="#FFBB01"/>
</linearGradient>
<linearGradient id="paint1_linear_2445_2393" x1="3.26144" y1="3.70101" x2="30.9097" y2="24.3721" gradientUnits="userSpaceOnUse">
<stop stop-color="#FFBB01"/>
<stop offset="1" stop-color="#FF0080"/>
</linearGradient>
<linearGradient id="paint2_linear_2445_2393" x1="13.1999" y1="-2.19988e-07" x2="11.1145" y2="31.8635" gradientUnits="userSpaceOnUse">
<stop stop-color="#FF0080"/>
<stop offset="1" stop-color="#FFBB01"/>
</linearGradient>
</defs>
</svg>
